<?xml version="1.0" encoding="UTF-8" standalone="no"?>
<!DOCTYPE svg PUBLIC "-//W3C//DTD SVG 1.1//EN" "http://www.w3.org/Graphics/SVG/1.1/DTD/svg11.dtd">
<svg xmlns="http://www.w3.org/2000/svg" xmlns:xlink="http://www.w3.org/1999/xlink" version="1.1" width="612pt" height="792pt" viewBox="0 0 612 792">
<g enable-background="new">
<text xml:space="preserve" transform="matrix(1 0 -0 1 72 72)" font-size="14.3462" font-family="LinLibertineOB" font-weight="bold"><tspan y="10.014" x="0 8.808567 16.067746 24.503314 31.518605 41.24533 49.709589 56.72488 69.70819 78.043338 82.70585 89.96503 95.10097">PaperTemplate</tspan></text>
<path transform="matrix(1,0,0,-1,72,72)" stroke-width=".3985" stroke-linecap="butt" stroke-miterlimit="10" stroke-linejoin="miter" fill="none" stroke="#000000" d="M 0 -22.168 L 468 -22.168 "/>
<text xml:space="preserve" transform="matrix(1 0 -0 1 72 72)" font-size="9.9626" font-family="LinLibertineO"><tspan y="39.304" x="0 3.2079573 7.7608659 13.160595 18.450736 23.003643 26.859169 34.480558 39.113168 43.745779 48.4282 53.06081 57.69342 62.32603">January20,2021</tspan></text>
<text xml:space="preserve" transform="matrix(1 0 -0 1 72 72)" font-size="14.3462" font-family="LinLibertineOB" font-weight="bold"><tspan y="72.265" x="0">1</tspan></text>
<text xml:space="preserve" transform="matrix(1 0 -0 1 72 72)" font-size="9.9626" font-family="LinLibertineO"><tspan y="677.888" x="231.684">1</tspan></text>
</g>
</svg>
